<?xml version="1.0" standalone="no"?>
<!DOCTYPE svg PUBLIC "-//W3C//DTD SVG 1.1//EN" "http://www.w3.org/Graphics/SVG/1.1/DTD/svg11.dtd">
<svg width="148mm" height="50mm" viewBox="-13 -18 148 50" xmlns="http://www.w3.org/2000/svg" version="1.1">
<title>OpenSCAD Model</title>
<path d="
M 105.492,-0.765625 L 108,-0.765625 L 108,-3.10938 L 105.753,-3.10938 L 105.753,-3.89062 L 108,-3.89062
 L 108,-6.23438 L 106.013,-6.23438 L 106.013,-7.01562 L 108,-7.01562 L 108,-9.35938 L 106.273,-9.35938
 L 106.273,-10.1406 L 108,-10.1406 L 108,-12.4844 L 106.534,-12.4844 L 106.534,-13.2656 L 108,-13.2656
 L 108,-18 L 106,-18 L 103,-0 L 105.492,-0 z
M 60,-18 L 57.5078,-18 L 57.5078,-17.2344 L 55,-17.2344 L 55,-14.8906 L 57.2474,-14.8906
 L 57.2474,-14.1094 L 55,-14.1094 L 55,-11.7656 L 56.987,-11.7656 L 56.987,-10.9844 L 55,-10.9844
 L 55,-8.64062 L 56.7266,-8.64062 L 56.7266,-7.85938 L 55,-7.85938 L 55,-5.51562 L 56.4661,-5.51562
 L 56.4661,-4.73438 L 55,-4.73438 L 55,-0 L 57,-0 z
M 6.4922,-0.765625 L 9,-0.765625 L 9,-3.10938 L 6.75261,-3.10938 L 6.75261,-3.89062 L 9,-3.89062
 L 9,-6.23438 L 7.01303,-6.23438 L 7.01303,-7.01562 L 9,-7.01562 L 9,-9.35938 L 7.27344,-9.35938
 L 7.27344,-10.1406 L 9,-10.1406 L 9,-12.4844 L 7.53386,-12.4844 L 7.53386,-13.2656 L 9,-13.2656
 L 9,-18 L 7,-18 L 4,-0 L 6.4922,-0 z
M 16,-18 L 13.5078,-18 L 13.5078,-17.2344 L 11,-17.2344 L 11,-14.8906 L 13.2474,-14.8906
 L 13.2474,-14.1094 L 11,-14.1094 L 11,-11.7656 L 12.987,-11.7656 L 12.987,-10.9844 L 11,-10.9844
 L 11,-8.64062 L 12.7266,-8.64062 L 12.7266,-7.85938 L 11,-7.85938 L 11,-5.51562 L 12.4661,-5.51562
 L 12.4661,-4.73438 L 11,-4.73438 L 11,-0 L 13,-0 z
M 17.4922,-0.765625 L 20,-0.765625 L 20,-3.10938 L 17.7526,-3.10938 L 17.7526,-3.89062 L 20,-3.89062
 L 20,-6.23438 L 18.013,-6.23438 L 18.013,-7.01562 L 20,-7.01562 L 20,-9.35938 L 18.2734,-9.35938
 L 18.2734,-10.1406 L 20,-10.1406 L 20,-12.4844 L 18.5339,-12.4844 L 18.5339,-13.2656 L 20,-13.2656
 L 20,-18 L 18,-18 L 15,-0 L 17.4922,-0 z
M 27,-18 L 24.5078,-18 L 24.5078,-17.2344 L 22,-17.2344 L 22,-14.8906 L 24.2474,-14.8906
 L 24.2474,-14.1094 L 22,-14.1094 L 22,-11.7656 L 23.987,-11.7656 L 23.987,-10.9844 L 22,-10.9844
 L 22,-8.64062 L 23.7266,-8.64062 L 23.7266,-7.85938 L 22,-7.85938 L 22,-5.51562 L 23.4661,-5.51562
 L 23.4661,-4.73438 L 22,-4.73438 L 22,-0 L 24,-0 z
M 28.4922,-0.765625 L 31,-0.765625 L 31,-3.10938 L 28.7526,-3.10938 L 28.7526,-3.89062 L 31,-3.89062
 L 31,-6.23438 L 29.013,-6.23438 L 29.013,-7.01562 L 31,-7.01562 L 31,-9.35938 L 29.2734,-9.35938
 L 29.2734,-10.1406 L 31,-10.1406 L 31,-12.4844 L 29.5339,-12.4844 L 29.5339,-13.2656 L 31,-13.2656
 L 31,-18 L 29,-18 L 26,-0 L 28.4922,-0 z
M 38,-18 L 35.5078,-18 L 35.5078,-17.2344 L 33,-17.2344 L 33,-14.8906 L 35.2474,-14.8906
 L 35.2474,-14.1094 L 33,-14.1094 L 33,-11.7656 L 34.987,-11.7656 L 34.987,-10.9844 L 33,-10.9844
 L 33,-8.64062 L 34.7266,-8.64062 L 34.7266,-7.85938 L 33,-7.85938 L 33,-5.51562 L 34.4661,-5.51562
 L 34.4661,-4.73438 L 33,-4.73438 L 33,-0 L 35,-0 z
M 39.4922,-0.765625 L 42,-0.765625 L 42,-3.10938 L 39.7526,-3.10938 L 39.7526,-3.89062 L 42,-3.89062
 L 42,-6.23438 L 40.013,-6.23438 L 40.013,-7.01562 L 42,-7.01562 L 42,-9.35938 L 40.2734,-9.35938
 L 40.2734,-10.1406 L 42,-10.1406 L 42,-12.4844 L 40.5339,-12.4844 L 40.5339,-13.2656 L 42,-13.2656
 L 42,-18 L 40,-18 L 37,-0 L 39.4922,-0 z
M 49,-18 L 46.5078,-18 L 46.5078,-17.2344 L 44,-17.2344 L 44,-14.8906 L 46.2474,-14.8906
 L 46.2474,-14.1094 L 44,-14.1094 L 44,-11.7656 L 45.987,-11.7656 L 45.987,-10.9844 L 44,-10.9844
 L 44,-8.64062 L 45.7266,-8.64062 L 45.7266,-7.85938 L 44,-7.85938 L 44,-5.51562 L 45.4661,-5.51562
 L 45.4661,-4.73438 L 44,-4.73438 L 44,-0 L 46,-0 z
M 50.4922,-0.765625 L 53,-0.765625 L 53,-3.10938 L 50.7526,-3.10938 L 50.7526,-3.89062 L 53,-3.89062
 L 53,-6.23438 L 51.013,-6.23438 L 51.013,-7.01562 L 53,-7.01562 L 53,-9.35938 L 51.2734,-9.35938
 L 51.2734,-10.1406 L 53,-10.1406 L 53,-12.4844 L 51.5339,-12.4844 L 51.5339,-13.2656 L 53,-13.2656
 L 53,-18 L 51,-18 L 48,-0 L 50.4922,-0 z
M 61.4922,-0.765625 L 64,-0.765625 L 64,-3.10938 L 61.7526,-3.10938 L 61.7526,-3.89062 L 64,-3.89062
 L 64,-6.23438 L 62.013,-6.23438 L 62.013,-7.01562 L 64,-7.01562 L 64,-9.35938 L 62.2734,-9.35938
 L 62.2734,-10.1406 L 64,-10.1406 L 64,-12.4844 L 62.5339,-12.4844 L 62.5339,-13.2656 L 64,-13.2656
 L 64,-18 L 62,-18 L 59,-0 L 61.4922,-0 z
M 5,-18 L 2.5078,-18 L 2.5078,-17.2344 L 0,-17.2344 L 0,-14.8906 L 2.24739,-14.8906
 L 2.24739,-14.1094 L 0,-14.1094 L 0,-11.7656 L 1.98697,-11.7656 L 1.98697,-10.9844 L 0,-10.9844
 L 0,-8.64062 L 1.72656,-8.64062 L 1.72656,-7.85938 L 0,-7.85938 L 0,-5.51562 L 1.46614,-5.51562
 L 1.46614,-4.73438 L 0,-4.73438 L 0,-0 L 2,-0 z
M 104,-18 L 101.508,-18 L 101.508,-17.2344 L 99,-17.2344 L 99,-14.8906 L 101.247,-14.8906
 L 101.247,-14.1094 L 99,-14.1094 L 99,-11.7656 L 100.987,-11.7656 L 100.987,-10.9844 L 99,-10.9844
 L 99,-8.64062 L 100.727,-8.64062 L 100.727,-7.85938 L 99,-7.85938 L 99,-5.51562 L 100.466,-5.51562
 L 100.466,-4.73438 L 99,-4.73438 L 99,-0 L 101,-0 z
M 94.4922,-0.765625 L 97,-0.765625 L 97,-3.10938 L 94.7526,-3.10938 L 94.7526,-3.89062 L 97,-3.89062
 L 97,-6.23438 L 95.013,-6.23438 L 95.013,-7.01562 L 97,-7.01562 L 97,-9.35938 L 95.2734,-9.35938
 L 95.2734,-10.1406 L 97,-10.1406 L 97,-12.4844 L 95.5339,-12.4844 L 95.5339,-13.2656 L 97,-13.2656
 L 97,-18 L 95,-18 L 92,-0 L 94.4922,-0 z
M 93,-18 L 90.5078,-18 L 90.5078,-17.2344 L 88,-17.2344 L 88,-14.8906 L 90.2474,-14.8906
 L 90.2474,-14.1094 L 88,-14.1094 L 88,-11.7656 L 89.987,-11.7656 L 89.987,-10.9844 L 88,-10.9844
 L 88,-8.64062 L 89.7266,-8.64062 L 89.7266,-7.85938 L 88,-7.85938 L 88,-5.51562 L 89.4661,-5.51562
 L 89.4661,-4.73438 L 88,-4.73438 L 88,-0 L 90,-0 z
M 83.4922,-0.765625 L 86,-0.765625 L 86,-3.10938 L 83.7526,-3.10938 L 83.7526,-3.89062 L 86,-3.89062
 L 86,-6.23438 L 84.013,-6.23438 L 84.013,-7.01562 L 86,-7.01562 L 86,-9.35938 L 84.2734,-9.35938
 L 84.2734,-10.1406 L 86,-10.1406 L 86,-12.4844 L 84.5339,-12.4844 L 84.5339,-13.2656 L 86,-13.2656
 L 86,-18 L 84,-18 L 81,-0 L 83.4922,-0 z
M 82,-18 L 79.5078,-18 L 79.5078,-17.2344 L 77,-17.2344 L 77,-14.8906 L 79.2474,-14.8906
 L 79.2474,-14.1094 L 77,-14.1094 L 77,-11.7656 L 78.987,-11.7656 L 78.987,-10.9844 L 77,-10.9844
 L 77,-8.64062 L 78.7266,-8.64062 L 78.7266,-7.85938 L 77,-7.85938 L 77,-5.51562 L 78.4661,-5.51562
 L 78.4661,-4.73438 L 77,-4.73438 L 77,-0 L 79,-0 z
M 72.4922,-0.765625 L 75,-0.765625 L 75,-3.10938 L 72.7526,-3.10938 L 72.7526,-3.89062 L 75,-3.89062
 L 75,-6.23438 L 73.013,-6.23438 L 73.013,-7.01562 L 75,-7.01562 L 75,-9.35938 L 73.2734,-9.35938
 L 73.2734,-10.1406 L 75,-10.1406 L 75,-12.4844 L 73.5339,-12.4844 L 73.5339,-13.2656 L 75,-13.2656
 L 75,-18 L 73,-18 L 70,-0 L 72.4922,-0 z
M 71,-18 L 68.5078,-18 L 68.5078,-17.2344 L 66,-17.2344 L 66,-14.8906 L 68.2474,-14.8906
 L 68.2474,-14.1094 L 66,-14.1094 L 66,-11.7656 L 67.987,-11.7656 L 67.987,-10.9844 L 66,-10.9844
 L 66,-8.64062 L 67.7266,-8.64062 L 67.7266,-7.85938 L 66,-7.85938 L 66,-5.51562 L 67.4661,-5.51562
 L 67.4661,-4.73438 L 66,-4.73438 L 66,-0 L 68,-0 z
M 124.264,31.3866 L 123.489,29.0015 L 124.232,28.7601 L 125.007,31.1451 L 128.501,29.3649 L 127.027,27.336
 L 127.659,26.8768 L 129.133,28.9056 L 131.906,26.1328 L 129.877,24.6587 L 130.336,24.0267 L 132.365,25.5007
 L 134.145,22.0068 L 131.76,21.2318 L 132.001,20.4888 L 134.387,21.2637 L 135,17.3906 L 132.492,17.3906
 L 132.492,16.6094 L 135,16.6094 L 134.387,12.7363 L 132.001,13.5112 L 131.76,12.7682 L 134.145,11.9932
 L 132.365,8.49925 L 130.336,9.97331 L 129.877,9.34126 L 131.906,7.8672 L 129.133,5.09436 L 127.659,7.12321
 L 127.027,6.66402 L 128.501,4.63515 L 125.007,2.85487 L 124.232,5.23994 L 123.489,4.99852 L 124.264,2.61345
 L 120.391,2 L 120.391,4.50781 L 119.609,4.50781 L 119.609,2 L 115.736,2.61345 L 116.511,4.99852
 L 115.768,5.23994 L 114.993,2.85487 L 111.499,4.63515 L 112.973,6.66402 L 112.341,7.12321 L 110.867,5.09436
 L 108.094,7.8672 L 110.123,9.34126 L 109.664,9.97331 L 107.635,8.49925 L 105.855,11.9932 L 108.24,12.7682
 L 107.999,13.5112 L 105.613,12.7363 L 105,16.6094 L 107.508,16.6094 L 107.508,17.3906 L 105,17.3906
 L 105.613,21.2637 L 107.999,20.4888 L 108.24,21.2318 L 105.855,22.0068 L 107.635,25.5007 L 109.664,24.0267
 L 110.123,24.6587 L 108.094,26.1328 L 110.867,28.9056 L 112.341,26.8768 L 112.973,27.336 L 111.499,29.3649
 L 114.993,31.1451 L 115.768,28.7601 L 116.511,29.0015 L 115.736,31.3866 L 119.609,32 L 119.609,29.4922
 L 120.391,29.4922 L 120.391,32 z
M 94.1028,30.8912 L 93.4083,28.7538 L 94.1513,28.5124 L 94.8458,30.6498 L 98.1946,28.9435 L 96.8736,27.1253
 L 97.5057,26.6661 L 98.8267,28.4843 L 101.484,25.8267 L 99.6661,24.5057 L 100.125,23.8736 L 101.943,25.1946
 L 103.65,21.8458 L 101.512,21.1513 L 101.754,20.4083 L 103.891,21.1028 L 104.479,17.3906 L 102.232,17.3906
 L 102.232,16.6094 L 104.479,16.6094 L 103.891,12.8972 L 101.754,13.5917 L 101.512,12.8487 L 103.65,12.1542
 L 101.943,8.80539 L 100.125,10.1264 L 99.6661,9.49432 L 101.484,8.17334 L 98.8267,5.51572 L 97.5057,7.33391
 L 96.8736,6.87469 L 98.1946,5.05652 L 94.8458,3.3502 L 94.1513,5.48761 L 93.4083,5.24619 L 94.1028,3.1088
 L 90.3906,2.52084 L 90.3906,4.76823 L 89.6094,4.76823 L 89.6094,2.52084 L 85.8972,3.1088 L 86.5917,5.24619
 L 85.8487,5.48761 L 85.1542,3.3502 L 81.8054,5.05652 L 83.1264,6.87469 L 82.4943,7.33391 L 81.1733,5.51572
 L 78.5157,8.17334 L 80.3339,9.49432 L 79.8747,10.1264 L 78.0565,8.80539 L 76.3502,12.1542 L 78.4876,12.8487
 L 78.2462,13.5917 L 76.1088,12.8972 L 75.5208,16.6094 L 77.7682,16.6094 L 77.7682,17.3906 L 75.5208,17.3906
 L 76.1088,21.1028 L 78.2462,20.4083 L 78.4876,21.1513 L 76.3502,21.8458 L 78.0565,25.1946 L 79.8747,23.8736
 L 80.3339,24.5057 L 78.5157,25.8267 L 81.1733,28.4843 L 82.4943,26.6661 L 83.1264,27.1253 L 81.8054,28.9435
 L 85.1542,30.6498 L 85.8487,28.5124 L 86.5917,28.7538 L 85.8972,30.8912 L 89.6094,31.4792 L 89.6094,29.2318
 L 90.3906,29.2318 L 90.3906,31.4792 z
M 63.9418,30.3959 L 63.3278,28.5061 L 64.0708,28.2647 L 64.6849,30.1544 L 67.8885,28.5221 L 66.7206,26.9146
 L 67.3526,26.4554 L 68.5205,28.0629 L 71.0629,25.5205 L 69.4554,24.3526 L 69.9146,23.7206 L 71.5221,24.8885
 L 73.1544,21.6849 L 71.2647,21.0708 L 71.5061,20.3278 L 73.3959,20.9418 L 73.9583,17.3906 L 71.9713,17.3906
 L 71.9713,16.6094 L 73.9583,16.6094 L 73.3959,13.0582 L 71.5061,13.6722 L 71.2647,12.9292 L 73.1544,12.3151
 L 71.5221,9.11153 L 69.9146,10.2794 L 69.4554,9.6474 L 71.0629,8.47948 L 68.5205,5.93709 L 67.3526,7.54459
 L 66.7206,7.08537 L 67.8885,5.47787 L 64.6849,3.84555 L 64.0708,5.73529 L 63.3278,5.49387 L 63.9418,3.60414
 L 60.3906,3.04167 L 60.3906,5.02866 L 59.6094,5.02866 L 59.6094,3.04167 L 56.0582,3.60414 L 56.6722,5.49387
 L 55.9292,5.73529 L 55.3151,3.84555 L 52.1115,5.47787 L 53.2794,7.08537 L 52.6474,7.54459 L 51.4795,5.93709
 L 48.9371,8.47948 L 50.5446,9.6474 L 50.0854,10.2794 L 48.4779,9.11153 L 46.8456,12.3151 L 48.7353,12.9292
 L 48.4939,13.6722 L 46.6041,13.0582 L 46.0417,16.6094 L 48.0287,16.6094 L 48.0287,17.3906 L 46.0417,17.3906
 L 46.6041,20.9418 L 48.4939,20.3278 L 48.7353,21.0708 L 46.8456,21.6849 L 48.4779,24.8885 L 50.0854,23.7206
 L 50.5446,24.3526 L 48.9371,25.5205 L 51.4795,28.0629 L 52.6474,26.4554 L 53.2794,26.9146 L 52.1115,28.5221
 L 55.3151,30.1544 L 55.9292,28.2647 L 56.6722,28.5061 L 56.0582,30.3959 L 59.6094,30.9583 L 59.6094,28.9713
 L 60.3906,28.9713 L 60.3906,30.9583 z
M 33.7809,29.9005 L 33.2474,28.2585 L 33.9904,28.017 L 34.5239,29.6591 L 37.5823,28.1008 L 36.5675,26.7039
 L 37.1995,26.2447 L 38.2144,27.6416 L 40.6416,25.2144 L 39.2447,24.1995 L 39.7039,23.5675 L 41.1008,24.5823
 L 42.6591,21.5239 L 41.017,20.9904 L 41.2585,20.2474 L 42.9005,20.7809 L 43.4375,17.3906 L 41.7109,17.3906
 L 41.7109,16.6094 L 43.4375,16.6094 L 42.9005,13.2191 L 41.2585,13.7526 L 41.017,13.0096 L 42.6591,12.4761
 L 41.1008,9.41766 L 39.7039,10.4325 L 39.2447,9.80048 L 40.6416,8.78561 L 38.2144,6.35844 L 37.1995,7.75526
 L 36.5675,7.29605 L 37.5823,5.89923 L 34.5239,4.3409 L 33.9904,5.98296 L 33.2474,5.74153 L 33.7809,4.09947
 L 30.3906,3.5625 L 30.3906,5.28906 L 29.6094,5.28906 L 29.6094,3.5625 L 26.2191,4.09947 L 26.7526,5.74153
 L 26.0096,5.98296 L 25.4761,4.3409 L 22.4177,5.89923 L 23.4325,7.29605 L 22.8005,7.75526 L 21.7856,6.35844
 L 19.3584,8.78561 L 20.7553,9.80048 L 20.2961,10.4325 L 18.8992,9.41766 L 17.3409,12.4761 L 18.983,13.0096
 L 18.7415,13.7526 L 17.0995,13.2191 L 16.5625,16.6094 L 18.2891,16.6094 L 18.2891,17.3906 L 16.5625,17.3906
 L 17.0995,20.7809 L 18.7415,20.2474 L 18.983,20.9904 L 17.3409,21.5239 L 18.8992,24.5823 L 20.2961,23.5675
 L 20.7553,24.1995 L 19.3584,25.2144 L 21.7856,27.6416 L 22.8005,26.2447 L 23.4325,26.7039 L 22.4177,28.1008
 L 25.4761,29.6591 L 26.0096,28.017 L 26.7526,28.2585 L 26.2191,29.9005 L 29.6094,30.4375 L 29.6094,28.7109
 L 30.3906,28.7109 L 30.3906,30.4375 z
M 3.61995,29.4052 L 3.16689,28.0108 L 3.9099,27.7694 L 4.36296,29.1638 L 7.2762,27.6794 L 6.41441,26.4933
 L 7.04646,26.0341 L 7.90823,27.2202 L 10.2202,24.9082 L 9.03406,24.0465 L 9.49326,23.4144 L 10.6794,24.2762
 L 12.1638,21.363 L 10.7694,20.9099 L 11.0108,20.1669 L 12.4052,20.6199 L 12.9167,17.3906 L 11.4505,17.3906
 L 11.4505,16.6094 L 12.9167,16.6094 L 12.4052,13.3801 L 11.0108,13.8331 L 10.7694,13.0901 L 12.1638,12.637
 L 10.6794,9.7238 L 9.49326,10.5856 L 9.03406,9.95354 L 10.2202,9.09177 L 7.90823,6.77982 L 7.04646,7.96594
 L 6.41441,7.50674 L 7.2762,6.3206 L 4.36296,4.83624 L 3.9099,6.23062 L 3.16689,5.98921 L 3.61995,4.59482
 L 0.390625,4.08334 L 0.390625,5.54948 L -0.390625,5.54948 L -0.390625,4.08334 L -3.61995,4.59482 L -3.16689,5.98921
 L -3.9099,6.23062 L -4.36296,4.83624 L -7.2762,6.3206 L -6.41441,7.50674 L -7.04646,7.96594 L -7.90823,6.77982
 L -10.2202,9.09177 L -9.03406,9.95354 L -9.49326,10.5856 L -10.6794,9.7238 L -12.1638,12.637 L -10.7694,13.0901
 L -11.0108,13.8331 L -12.4052,13.3801 L -12.9167,16.6094 L -11.4505,16.6094 L -11.4505,17.3906 L -12.9167,17.3906
 L -12.4052,20.6199 L -11.0108,20.1669 L -10.7694,20.9099 L -12.1638,21.363 L -10.6794,24.2762 L -9.49326,23.4144
 L -9.03406,24.0465 L -10.2202,24.9082 L -7.90823,27.2202 L -7.04646,26.0341 L -6.41441,26.4933 L -7.2762,27.6794
 L -4.36296,29.1638 L -3.9099,27.7694 L -3.16689,28.0108 L -3.61995,29.4052 L -0.390625,29.9167 L -0.390625,28.4505
 L 0.390625,28.4505 L 0.390625,29.9167 z
" stroke="black" fill="lightgray" stroke-width="0.5"/>
</svg>
