<?xml version="1.0" standalone="no"?>
<!DOCTYPE svg PUBLIC "-//W3C//DTD SVG 1.1//EN" "http://www.w3.org/Graphics/SVG/1.1/DTD/svg11.dtd">
<svg width="58mm" height="40mm" viewBox="-8 -18 58 40" xmlns="http://www.w3.org/2000/svg" version="1.1">
<title>OpenSCAD Model</title>
<path d="
M 5,-18 L 2.5078,-18 L 2.5078,-17.2344 L 0,-17.2344 L 0,-11.7656 L 1.98697,-11.7656
 L 1.98697,-10.9844 L 0,-10.9844 L 0,-5.51562 L 1.46614,-5.51562 L 1.46614,-4.73438 L 0,-4.73438
 L 0,-0 L 2,-0 z
M 6.4922,-0.765625 L 9,-0.765625 L 9,-6.23438 L 7.01303,-6.23438 L 7.01303,-7.01562 L 9,-7.01562
 L 9,-12.4844 L 7.53386,-12.4844 L 7.53386,-13.2656 L 9,-13.2656 L 9,-18 L 7,-18
 L 4,-0 L 6.4922,-0 z
M 16,-18 L 13.5078,-18 L 13.5078,-17.2344 L 11,-17.2344 L 11,-11.7656 L 12.987,-11.7656
 L 12.987,-10.9844 L 11,-10.9844 L 11,-5.51562 L 12.4661,-5.51562 L 12.4661,-4.73438 L 11,-4.73438
 L 11,-0 L 13,-0 z
M 40.5233,21.9863 L 41.0453,21.9452 L 41.5643,21.8769 L 42.0791,21.7815 L 42.5882,21.6593 L 43.0902,21.5106
 L 43.5837,21.3358 L 44.0674,21.1355 L 44.5399,20.9101 L 45,20.6602 L 45.4464,20.3867 L 45.8778,20.0902
 L 46.2932,19.7715 L 46.6913,19.4314 L 47.0711,19.0711 L 47.4314,18.6913 L 47.7715,18.2932 L 48.0902,17.8778
 L 48.3867,17.4464 L 48.6602,17 L 48.9101,16.5399 L 49.1355,16.0674 L 49.3358,15.5837 L 49.5106,15.0902
 L 49.6593,14.5882 L 49.7815,14.0791 L 49.8769,13.5643 L 49.9452,13.0453 L 49.9863,12.5233 L 50,12
 L 49.9863,11.4767 L 49.9452,10.9547 L 49.8769,10.4357 L 49.7815,9.92088 L 49.6593,9.41182 L 49.5106,8.90984
 L 49.3358,8.41632 L 49.1355,7.93265 L 48.9101,7.4601 L 48.8467,7.34341 L 46.6837,8.59221 L 46.2931,7.91562
 L 48.4561,6.66682 L 48.3867,6.55362 L 48.0902,6.12216 L 47.7715,5.7068 L 47.4314,5.3087 L 47.0711,4.92894
 L 46.6913,4.56856 L 46.2932,4.22855 L 45.8778,3.90984 L 45.4464,3.6133 L 45,3.33975 L 44.5399,3.08994
 L 44.0674,2.86455 L 43.5837,2.6642 L 43.0902,2.48944 L 42.5882,2.34074 L 42.0791,2.21854 L 41.5643,2.12312
 L 41.0453,2.05479 L 40.5233,2.01372 L 40,2 L 39.4767,2.01372 L 38.9547,2.05479 L 38.4357,2.12312
 L 37.9209,2.21854 L 37.4118,2.34074 L 36.9098,2.48944 L 36.4163,2.6642 L 35.9326,2.86455 L 35.4601,3.08994
 L 35,3.33975 L 34.5536,3.6133 L 34.1222,3.90984 L 33.7068,4.22855 L 33.3087,4.56856 L 32.9289,4.92894
 L 32.5686,5.3087 L 32.2285,5.7068 L 31.9098,6.12216 L 31.6133,6.55362 L 31.5439,6.66682 L 33.7069,7.91562
 L 33.3163,8.59221 L 31.1533,7.34341 L 31.0899,7.4601 L 30.8645,7.93265 L 30.6642,8.41632 L 30.4894,8.90984
 L 30.3407,9.41182 L 30.2185,9.92088 L 30.1231,10.4357 L 30.0548,10.9547 L 30.0137,11.4767 L 30,12
 L 30.0137,12.5233 L 30.0548,13.0453 L 30.1231,13.5643 L 30.2185,14.0791 L 30.3407,14.5882 L 30.4894,15.0902
 L 30.6642,15.5837 L 30.8645,16.0674 L 31.0899,16.5399 L 31.3398,17 L 31.6133,17.4464 L 31.9098,17.8778
 L 32.2285,18.2932 L 32.5686,18.6913 L 32.9289,19.0711 L 33.3087,19.4314 L 33.7068,19.7715 L 34.1222,20.0902
 L 34.5536,20.3867 L 35,20.6602 L 35.4601,20.9101 L 35.9326,21.1355 L 36.4163,21.3358 L 36.9098,21.5106
 L 37.4118,21.6593 L 37.9209,21.7815 L 38.4357,21.8769 L 38.9547,21.9452 L 39.4767,21.9863 L 39.6094,21.9898
 L 39.6094,19.4922 L 40.3906,19.4922 L 40.3906,21.9898 z
M 20.4688,20.946 L 20.9364,20.9093 L 21.4014,20.848 L 21.8625,20.7626 L 22.3186,20.6531 L 22.7683,20.5199
 L 23.2104,20.3633 L 23.6437,20.1838 L 24.067,19.9819 L 24.4792,19.7581 L 24.879,19.5131 L 25.2656,19.2474
 L 25.6376,18.9619 L 25.9943,18.6573 L 26.3345,18.3345 L 26.6573,17.9943 L 26.9619,17.6376 L 27.2474,17.2656
 L 27.5131,16.879 L 27.7581,16.4792 L 27.9819,16.067 L 28.1838,15.6437 L 28.3633,15.2104 L 28.5199,14.7683
 L 28.6531,14.3186 L 28.7626,13.8625 L 28.848,13.4014 L 28.9093,12.9364 L 28.946,12.4688 L 28.9583,12
 L 28.946,11.5312 L 28.9093,11.0636 L 28.848,10.5986 L 28.7626,10.1375 L 28.6531,9.68143 L 28.5199,9.23174
 L 28.3633,8.78963 L 28.1838,8.35632 L 27.9819,7.93301 L 27.9446,7.86424 L 26.2327,8.85262 L 25.8421,8.17604
 L 27.554,7.18767 L 27.5131,7.12096 L 27.2474,6.73444 L 26.9619,6.36235 L 26.6573,6.00571 L 26.3345,5.66551
 L 25.9943,5.34267 L 25.6376,5.03807 L 25.2656,4.75256 L 24.879,4.48692 L 24.4792,4.24187 L 24.067,4.01808
 L 23.6437,3.81616 L 23.2104,3.63669 L 22.7683,3.48013 L 22.3186,3.34692 L 21.8625,3.23744 L 21.4014,3.15196
 L 20.9364,3.09074 L 20.4688,3.05396 L 20,3.04167 L 19.5312,3.05396 L 19.0636,3.09074 L 18.5986,3.15196
 L 18.1375,3.23744 L 17.6814,3.34692 L 17.2317,3.48013 L 16.7896,3.63669 L 16.3563,3.81616 L 15.933,4.01808
 L 15.5208,4.24187 L 15.121,4.48692 L 14.7344,4.75256 L 14.3624,5.03807 L 14.0057,5.34267 L 13.6655,5.66551
 L 13.3427,6.00571 L 13.0381,6.36235 L 12.7526,6.73444 L 12.4869,7.12096 L 12.446,7.18767 L 14.1579,8.17604
 L 13.7673,8.85262 L 12.0554,7.86424 L 12.0181,7.93301 L 11.8162,8.35632 L 11.6367,8.78963 L 11.4801,9.23174
 L 11.3469,9.68143 L 11.2374,10.1375 L 11.152,10.5986 L 11.0907,11.0636 L 11.054,11.5312 L 11.0417,12
 L 11.054,12.4688 L 11.0907,12.9364 L 11.152,13.4014 L 11.2374,13.8625 L 11.3469,14.3186 L 11.4801,14.7683
 L 11.6367,15.2104 L 11.8162,15.6437 L 12.0181,16.067 L 12.2419,16.4792 L 12.4869,16.879 L 12.7526,17.2656
 L 13.0381,17.6376 L 13.3427,17.9943 L 13.6655,18.3345 L 14.0057,18.6573 L 14.3624,18.9619 L 14.7344,19.2474
 L 15.121,19.5131 L 15.5208,19.7581 L 15.933,19.9819 L 16.3563,20.1838 L 16.7896,20.3633 L 17.2317,20.5199
 L 17.6814,20.6531 L 18.1375,20.7626 L 18.5986,20.848 L 19.0636,20.9093 L 19.5312,20.946 L 19.6094,20.9481
 L 19.6094,18.9713 L 20.3906,18.9713 L 20.3906,20.9481 z
M 0.414322,19.9058 L 0.827515,19.8733 L 1.23843,19.8192 L 1.64597,19.7437 L 2.04898,19.6469 L 2.44638,19.5292
 L 2.83707,19.3908 L 3.21999,19.2322 L 3.59409,19.0538 L 3.95833,18.856 L 4.31172,18.6395 L 4.65329,18.4047
 L 4.98212,18.1524 L 5.29727,17.8832 L 5.59792,17.5979 L 5.88322,17.2973 L 6.1524,16.9821 L 6.40471,16.6533
 L 6.63947,16.3117 L 6.85603,15.9583 L 7.05379,15.5941 L 7.23222,15.22 L 7.39084,14.8371 L 7.52919,14.4464
 L 7.64691,14.049 L 7.74367,13.646 L 7.8192,13.2384 L 7.87329,12.8275 L 7.90581,12.4143 L 7.91666,12
 L 7.90581,11.5857 L 7.87329,11.1725 L 7.8192,10.7616 L 7.74367,10.354 L 7.64691,9.95102 L 7.52919,9.55362
 L 7.39084,9.16293 L 7.23222,8.78001 L 7.05379,8.40591 L 7.04248,8.38509 L 5.78162,9.11304 L 5.39099,8.43646
 L 6.65186,7.7085 L 6.63947,7.68828 L 6.40471,7.34671 L 6.1524,7.01788 L 5.88322,6.70273 L 5.59792,6.40208
 L 5.29727,6.11678 L 4.98212,5.8476 L 4.65329,5.59529 L 4.31172,5.36053 L 3.95833,5.14397 L 3.59409,4.94621
 L 3.21999,4.76778 L 2.83707,4.60916 L 2.44638,4.47081 L 2.04898,4.35309 L 1.64597,4.25633 L 1.23843,4.1808
 L 0.827515,4.12671 L 0.414322,4.09419 L 0,4.08334 L -0.414322,4.09419 L -0.827515,4.12671 L -1.23843,4.1808
 L -1.64597,4.25633 L -2.04898,4.35309 L -2.44638,4.47081 L -2.83707,4.60916 L -3.21999,4.76778 L -3.59409,4.94621
 L -3.95833,5.14397 L -4.31172,5.36053 L -4.65329,5.59529 L -4.98212,5.8476 L -5.29727,6.11678 L -5.59792,6.40208
 L -5.88322,6.70273 L -6.1524,7.01788 L -6.40471,7.34671 L -6.63947,7.68828 L -6.65186,7.7085 L -5.39099,8.43646
 L -5.78162,9.11304 L -7.04248,8.38509 L -7.05379,8.40591 L -7.23222,8.78001 L -7.39084,9.16293 L -7.52919,9.55362
 L -7.64691,9.95102 L -7.74367,10.354 L -7.8192,10.7616 L -7.87329,11.1725 L -7.90581,11.5857 L -7.91666,12
 L -7.90581,12.4143 L -7.87329,12.8275 L -7.8192,13.2384 L -7.74367,13.646 L -7.64691,14.049 L -7.52919,14.4464
 L -7.39084,14.8371 L -7.23222,15.22 L -7.05379,15.5941 L -6.85603,15.9583 L -6.63947,16.3117 L -6.40471,16.6533
 L -6.1524,16.9821 L -5.88322,17.2973 L -5.59792,17.5979 L -5.29727,17.8832 L -4.98212,18.1524 L -4.65329,18.4047
 L -4.31172,18.6395 L -3.95833,18.856 L -3.59409,19.0538 L -3.21999,19.2322 L -2.83707,19.3908 L -2.44638,19.5292
 L -2.04898,19.6469 L -1.64597,19.7437 L -1.23843,19.8192 L -0.827515,19.8733 L -0.414322,19.9058 L -0.390625,19.9064
 L -0.390625,18.4505 L 0.390625,18.4505 L 0.390625,19.9064 z
" stroke="black" fill="lightgray" stroke-width="0.5"/>
</svg>
