<?xml version="1.0" standalone="no"?>
<!DOCTYPE svg PUBLIC "-//W3C//DTD SVG 1.1//EN" "http://www.w3.org/Graphics/SVG/1.1/DTD/svg11.dtd">
<svg width="83mm" height="63mm" viewBox="-19 -18 83 63" xmlns="http://www.w3.org/2000/svg" version="1.1">
<title>OpenSCAD Model</title>
<path d="
M 5,-18 L 2.5078,-18 L 2.5078,-17.2344 L 0,-17.2344 L 0,-5.51562 L 1.46614,-5.51562
 L 1.46614,-4.73438 L 0,-4.73438 L 0,-0 L 2,-0 z
M 6.4922,-0.765625 L 9,-0.765625 L 9,-12.4844 L 7.53386,-12.4844 L 7.53386,-13.2656 L 9,-13.2656
 L 9,-18 L 7,-18 L 4,-0 L 6.4922,-0 z
M 16,-18 L 13.5078,-18 L 13.5078,-17.2344 L 11,-17.2344 L 11,-5.51562 L 12.4661,-5.51562
 L 12.4661,-4.73438 L 11,-4.73438 L 11,-0 L 13,-0 z
M 17.4922,-0.765625 L 20,-0.765625 L 20,-12.4844 L 18.5339,-12.4844 L 18.5339,-13.2656 L 20,-13.2656
 L 20,-18 L 18,-18 L 15,-0 L 17.4922,-0 z
M 63.0537,23.4085 L 60.5459,23.4085 L 60.5459,22.6273 L 63.0537,22.6273 L 42.4264,2 L 42.4264,4.50781
 L 41.6452,4.50781 L 41.6452,2 L 21.0179,22.6273 L 23.5257,22.6273 L 23.5257,23.4085 L 21.0179,23.4085
 L 41.6452,44.0358 L 41.6452,41.528 L 42.4264,41.528 L 42.4264,44.0358 z
M 2,40.3431 L 2,25.0179 L 17.3252,25.0179 L 18.9346,23.4085 L 17.4684,23.4085 L 17.4684,22.6273
 L 18.9346,22.6273 L 17.3252,21.0179 L 2,21.0179 L 2,5.6927 L 0.390625,4.08333 L 0.390625,5.54948
 L -0.390625,5.54948 L -0.390625,4.08333 L -2,5.6927 L -2,21.0179 L -17.3252,21.0179 L -18.9346,22.6273
 L -17.4684,22.6273 L -17.4684,23.4085 L -18.9346,23.4085 L -17.3252,25.0179 L -2,25.0179 L -2,40.3431
 L -0.390625,41.9524 L -0.390625,40.4863 L 0.390625,40.4863 L 0.390625,41.9524 z
" stroke="black" fill="lightgray" stroke-width="0.5"/>
</svg>
